<?xml version="1.0" standalone="no"?><!DOCTYPE svg PUBLIC "-//W3C//DTD SVG 1.1//EN" "http://www.w3.org/Graphics/SVG/1.1/DTD/svg11.dtd"><svg t="1557950725788" class="icon" style="" viewBox="0 0 1024 1024" version="1.1" xmlns="http://www.w3.org/2000/svg" p-id="1991" xmlns:xlink="http://www.w3.org/1999/xlink" width="200" height="200"><defs><style type="text/css"></style></defs><path d="M157.538462 0v78.769231h-39.384616C53.248 78.769231 0 132.017231 0 196.923077v708.923077c0 64.905846 53.248 118.153846 118.153846 118.153846h787.692308c64.905846 0 118.153846-53.248 118.153846-118.153846v-708.923077c0-64.905846-53.248-118.153846-118.153846-118.153846H866.461538V0h-78.76923v78.769231H236.307692V0H157.538462z m-39.384616 157.538462H157.538462v78.76923h78.76923V157.538462h551.384616v78.76923h78.76923V157.538462h39.384616c22.134154 0 39.384615 17.250462 39.384615 39.384615V315.076923H78.769231V196.923077c0-22.134154 17.250462-39.384615 39.384615-39.384615zM78.769231 393.846154h866.461538v512c0 22.134154-17.250462 39.384615-39.384615 39.384615h-787.692308a38.912 38.912 0 0 1-39.384615-39.384615V393.846154z m275.692307 78.769231A118.153846 118.153846 0 0 0 236.307692 590.769231c0 57.501538 55.138462 88.615385 99.091693 113.821538 19.062154 10.791385 58.446769 32.925538 58.446769 43.716923 0 21.504-17.565538 39.384615-39.384616 39.384616H243.712c15.990154 45.843692 59.392 78.769231 110.749538 78.76923A118.153846 118.153846 0 0 0 472.615385 748.307692c0-56.635077-54.429538-87.433846-98.146462-112.324923C353.831385 624.324923 315.076923 602.427077 315.076923 590.769231c0-21.504 17.565538-39.384615 39.384615-39.384616h110.749539c-15.990154-45.843692-59.392-78.769231-110.749539-78.76923zM551.384615 472.615385v275.692307c0 54.429538 40.96 93.577846 91.057231 107.126154A41.905231 41.905231 0 0 0 669.538462 866.461538c64.905846 0 118.153846-53.248 118.153846-118.153846V472.615385H708.923077v275.692307c0 22.134154-17.250462 39.384615-39.384615 39.384616a38.912 38.912 0 0 1-39.384616-39.384616V472.615385H551.384615z" fill="#949AA3" p-id="1992"></path></svg>