<?xml version="1.0" standalone="no"?><!DOCTYPE svg PUBLIC "-//W3C//DTD SVG 1.1//EN" "http://www.w3.org/Graphics/SVG/1.1/DTD/svg11.dtd"><svg t="1557950660019" class="icon" style="" viewBox="0 0 1024 1024" version="1.1" xmlns="http://www.w3.org/2000/svg" p-id="1125" xmlns:xlink="http://www.w3.org/1999/xlink" width="200" height="200"><defs><style type="text/css"></style></defs><path d="M157.538462 0v78.769231h-39.384616C53.248 78.769231 0 132.017231 0 196.923077v708.923077c0 64.905846 53.248 118.153846 118.153846 118.153846h787.692308c64.905846 0 118.153846-53.248 118.153846-118.153846v-708.923077c0-64.905846-53.248-118.153846-118.153846-118.153846H866.461538V0h-78.76923v78.769231H236.307692V0H157.538462z m-39.384616 157.538462H157.538462v78.76923h78.76923V157.538462h551.384616v78.76923h78.76923V157.538462h39.384616c22.134154 0 39.384615 17.250462 39.384615 39.384615V315.076923H78.769231V196.923077c0-22.134154 17.250462-39.384615 39.384615-39.384615zM78.769231 393.846154h866.461538v512c0 22.134154-17.250462 39.384615-39.384615 39.384615h-787.692308a38.912 38.912 0 0 1-39.384615-39.384615V393.846154z m78.769231 78.769231v275.692307c0 64.905846 53.248 118.153846 118.153846 118.153846a41.905231 41.905231 0 0 0 27.096615-11.027692c19.377231-5.513846 36.942769-15.753846 51.672615-28.356923 14.808615 12.603077 32.295385 22.843077 51.672616 28.356923A41.905231 41.905231 0 0 0 433.230769 866.461538c64.905846 0 118.153846-53.248 118.153846-118.153846V472.615385H472.615385v275.692307c0 22.134154-17.250462 39.384615-39.384616 39.384616a38.912 38.912 0 0 1-39.384615-39.384616V472.615385H315.076923v275.692307c0 22.134154-17.250462 39.384615-39.384615 39.384616a38.912 38.912 0 0 1-39.384616-39.384616V472.615385H157.538462z m472.615384 0v393.846153h236.622769v-78.76923H708.923077V708.923077h78.769231V630.153846H708.923077V551.384615h157.853538V472.615385H630.153846z" fill="#949AA3" p-id="1126"></path></svg>