<?xml version="1.0" standalone="no"?><!DOCTYPE svg PUBLIC "-//W3C//DTD SVG 1.1//EN" "http://www.w3.org/Graphics/SVG/1.1/DTD/svg11.dtd"><svg t="1557946767126" class="icon" style="" viewBox="0 0 1024 1024" version="1.1" xmlns="http://www.w3.org/2000/svg" p-id="14255" xmlns:xlink="http://www.w3.org/1999/xlink" width="200" height="200"><defs><style type="text/css"></style></defs><path d="M157.696 955.392c-29.184-10.752-58.368-36.864-72.704-65.536l-13.312-26.624v-329.216c0-320 0.512-330.24 10.24-349.696 15.36-30.208 38.4-53.76 64-66.048 19.968-9.216 32.256-10.752 94.208-10.752h71.68l1.536-26.112c3.072-49.152 35.84-49.152 38.912 0l1.536 26.112h321.536l1.536-29.184c1.536-26.624 2.56-29.696 13.312-31.232 18.944-2.56 26.624 7.68 26.624 35.328v25.088h86.016c103.936 0 113.152 3.072 136.704 48.64l15.36 30.208 1.536 337.408c1.536 369.664 1.024 373.248-28.16 408.576-26.624 31.232-13.824 30.208-399.36 30.208-277.504-0.512-356.352-2.048-371.2-7.168z m735.232-48.64c21.504-24.064 23.04-39.424 23.552-262.656V430.08H112.128l1.536 216.576 1.536 216.064 14.848 19.456c27.648 35.84 4.096 33.792 397.824 34.304 346.112 0 356.352-0.512 365.056-9.728z m23.552-602.624c0-88.576-4.608-118.784-20.48-140.288-9.728-12.8-10.752-12.8-94.208-14.336l-84.992-1.536v69.632c0 71.68-4.096 89.6-19.456 89.6-18.944 0-21.504-10.24-21.504-85.504V148.48H353.792l-1.536 74.752c-1.536 65.024-2.56 75.776-10.24 80.896-6.656 4.096-11.776 4.096-17.92 0-8.192-5.12-9.216-15.872-10.752-80.896l-1.536-74.752H251.904c-69.12 0-89.088 4.608-110.08 24.064-27.136 26.112-29.184 34.816-29.184 129.536v87.04h803.84V304.128z" p-id="14256"></path><path d="M648.192 792.576c-4.608-18.432-3.584-20.992 7.68-17.92 15.36 4.096 24.576-0.512 32.768-16.896 6.656-12.8 5.12-18.944-23.04-92.672-16.896-43.52-30.72-79.36-30.72-79.872 0-1.024 8.704-1.536 19.456-1.536h18.944l14.848 42.496c26.624 75.776 22.528 72.192 36.864 34.304 6.656-18.432 15.872-43.008 20.48-54.784 7.168-19.968 9.728-22.016 25.6-22.016 9.728 0 17.408 0.512 17.408 1.536 0 7.68-74.24 193.536-81.408 203.264s-14.848 13.312-32.256 14.336c-20.48 1.536-23.552 0-26.624-10.24zM261.12 632.832v-110.592h63.488c56.832 0 64.512 1.024 80.384 11.776 37.376 25.088 53.248 74.752 41.472 131.584-6.656 30.208-16.896 47.104-38.912 63.488-12.288 9.216-23.04 10.752-80.384 12.288l-66.048 2.048v-110.592z m119.808 71.68c19.968-12.8 29.184-35.84 29.696-72.192 0.512-57.856-19.456-79.36-77.312-83.456l-36.352-2.56v172.032l35.84-2.56c20.48-1.536 40.96-6.144 48.128-11.264zM483.84 729.6c-16.896-16.384-16.896-43.008-1.024-61.44 8.704-10.24 20.48-14.848 54.784-20.992 24.064-4.608 44.544-9.216 45.568-10.24s-2.048-7.68-6.656-14.848c-11.776-17.92-44.032-18.432-58.368 0-7.168 8.704-15.36 12.8-26.112 12.8-17.408 0-18.944-3.072-9.728-23.04s29.184-28.16 69.632-28.16c27.648 0 38.4 2.048 48.128 10.24 12.288 9.216 13.312 13.312 15.36 70.144 1.536 33.28 4.608 64.512 6.656 69.632 3.072 7.168 1.024 8.704-13.824 8.704-9.728 0-19.968-2.56-23.04-5.632-4.096-4.096-8.704-4.096-15.872 0-5.632 3.072-24.576 5.632-41.984 5.632-26.112 0-33.28-2.048-43.52-12.8z m80.896-24.064c7.168-6.656 14.336-18.432 15.872-26.112 3.072-12.288 2.048-14.336-5.632-12.288-5.12 1.536-17.408 4.096-27.136 6.144-30.72 5.632-35.328 7.68-38.4 18.432-8.192 25.088 32.256 34.816 55.296 13.824z" p-id="14257"></path></svg>