<?xml version="1.0" standalone="no"?><!DOCTYPE svg PUBLIC "-//W3C//DTD SVG 1.1//EN" "http://www.w3.org/Graphics/SVG/1.1/DTD/svg11.dtd"><svg t="1557946902285" class="icon" style="" viewBox="0 0 1024 1024" version="1.1" xmlns="http://www.w3.org/2000/svg" p-id="15168" xmlns:xlink="http://www.w3.org/1999/xlink" width="200" height="200"><defs><style type="text/css"></style></defs><path d="M157.696 955.392c-29.184-10.752-58.368-36.864-72.704-65.536l-13.312-26.624v-329.216c0-320 0.512-330.24 10.24-349.696 15.36-30.208 38.4-53.76 64-66.048 19.968-9.216 32.256-10.752 94.208-10.752h71.68l1.536-26.112c3.072-49.152 35.84-49.152 38.912 0l1.536 26.112h321.536l1.536-29.184c1.536-26.624 2.56-29.696 13.312-31.232 18.944-2.56 26.624 7.68 26.624 35.328v25.088h86.016c103.936 0 113.152 3.072 136.704 48.64l15.36 30.208 1.536 337.408c1.536 369.664 1.024 373.248-28.16 408.576-26.624 31.232-13.824 30.208-399.36 30.208-277.504-0.512-356.352-2.048-371.2-7.168z m735.232-48.64c21.504-24.064 23.04-39.424 23.552-262.656V430.08H112.128l1.536 216.576 1.536 216.064 14.848 19.456c27.648 35.84 4.096 33.792 397.824 34.304 346.112 0 356.352-0.512 365.056-9.728z m23.552-602.624c0-88.576-4.608-118.784-20.48-140.288-9.728-12.8-10.752-12.8-94.208-14.336l-84.992-1.536v69.632c0 71.68-4.096 89.6-19.456 89.6-18.944 0-21.504-10.24-21.504-85.504V148.48H353.792l-1.536 74.752c-1.536 65.024-2.56 75.776-10.24 80.896-6.656 4.096-11.776 4.096-17.92 0-8.192-5.12-9.216-15.872-10.752-80.896l-1.536-74.752H251.904c-69.12 0-89.088 4.608-110.08 24.064-27.136 26.112-29.184 34.816-29.184 129.536v87.04h803.84V304.128z" p-id="15169"></path><path d="M256 634.88v-102.4h50.688l24.576 76.8c13.312 41.984 25.6 76.8 27.136 76.8s14.336-33.792 28.672-75.264l26.112-75.776 21.504-1.536 20.992-1.536v205.312h-30.72l-0.512-72.704-0.512-73.216-24.064 71.68-24.576 71.68-17.408 1.536-17.408 1.536-24.064-70.656-23.552-70.656-0.512 70.656-0.512 70.144h-35.84v-102.4zM510.976 728.064c-40.448-24.576-39.424-106.496 0.512-130.56 19.456-11.264 63.488-11.264 82.944 0 40.96 24.064 40.448 111.104-1.024 132.096-19.456 10.24-65.024 9.728-82.432-1.536z m57.344-18.944c31.744-16.384 31.744-75.776 0-92.16-13.824-7.168-16.896-7.168-30.72 0-30.208 15.36-30.72 75.776-1.024 92.16 17.408 9.216 14.336 9.216 31.744 0zM645.12 663.04v-74.24h15.36c8.704 0 15.36 2.56 15.36 5.12 0 3.584 3.072 3.584 9.728 0 11.264-5.632 51.2-7.168 64.512-2.048 16.896 6.656 23.04 30.208 23.04 89.088v56.32h-29.696l-2.048-53.248c-2.048-58.368-6.656-69.632-29.696-69.632-25.088 0-30.72 12.8-30.72 70.656v52.224h-35.84v-74.24z" p-id="15170"></path></svg>