<?xml version="1.0" standalone="no"?><!DOCTYPE svg PUBLIC "-//W3C//DTD SVG 1.1//EN" "http://www.w3.org/Graphics/SVG/1.1/DTD/svg11.dtd"><svg t="1557946838607" class="icon" style="" viewBox="0 0 1024 1024" version="1.1" xmlns="http://www.w3.org/2000/svg" p-id="14366" xmlns:xlink="http://www.w3.org/1999/xlink" width="200" height="200"><defs><style type="text/css"></style></defs><path d="M398.336 507.392H568.32C496.64 577.536 442.88 808.96 442.88 808.96h55.808c20.992-108.032 63.488-210.432 125.44-301.568l1.024-51.2H399.36l-1.024 51.2z" fill="#333333" p-id="14367"></path><path d="M870.4 98.304H768v51.2h102.4c16.896 0 30.72 13.824 30.72 30.72v128.512H122.88V180.224c0-16.896 13.824-30.72 30.72-30.72H256v-51.2H153.6c-45.056 0-81.92 36.864-81.92 81.92V870.4c0 45.056 36.864 81.92 81.92 81.92h716.8c45.056 0 81.92-36.864 81.92-81.92V180.224c0-45.056-36.864-81.92-81.92-81.92z m0 802.816H153.6c-16.896 0-30.72-13.824-30.72-30.72V359.936h778.24V870.4c0 16.896-13.824 30.72-30.72 30.72z" fill="#333333" p-id="14368"></path><path d="M353.28 204.8c14.336 0 25.6-11.264 25.6-25.6V98.816c0-14.336-11.264-25.6-25.6-25.6s-25.6 11.264-25.6 25.6V179.2c0 14.336 11.776 25.6 25.6 25.6z m158.72 0c14.336 0 25.6-11.264 25.6-25.6V98.816c0-14.336-11.264-25.6-25.6-25.6s-25.6 11.264-25.6 25.6V179.2c0 14.336 11.264 25.6 25.6 25.6z m158.72 0c14.336 0 25.6-11.264 25.6-25.6V98.816c0-14.336-11.264-25.6-25.6-25.6s-25.6 11.264-25.6 25.6V179.2c0 14.336 11.264 25.6 25.6 25.6z" fill="#333333" p-id="14369"></path></svg>